HIERARCHY
ROOT Hips
{
 OFFSET 0.000000 0.000000 0.000000
 CHANNELS 6 Xposition Yposition Zposition Yrotation Xrotation Zrotation
 JOINT Chest
 {
  OFFSET 0.000000 9.585900 0.002600
  CHANNELS 3 Yrotation Xrotation Zrotation
  JOINT Chest2
  {
   OFFSET 0.000000 9.601200 -0.005300
   CHANNELS 3 Yrotation Xrotation Zrotation
   JOINT Chest3
   {
    OFFSET 0.000000 9.561800 0.000000
    CHANNELS 3 Yrotation Xrotation Zrotation
    JOINT Chest4
    {
     OFFSET 0.000000 9.552100 0.000000
     CHANNELS 3 Yrotation Xrotation Zrotation
     JOINT Neck
     {
      OFFSET 0.000000 14.453000 0.000000
      CHANNELS 3 Yrotation Xrotation Zrotation
      JOINT Head
      {
       OFFSET 0.000000 8.936500 -0.011300
       CHANNELS 3 Yrotation Xrotation Zrotation
       End Site
       {
        OFFSET 0.000000 17.073600 -0.006000
       }
      }
     }
     JOINT RightCollar
     {
      OFFSET -2.921100 9.558500 0.000000
      CHANNELS 3 Yrotation Xrotation Zrotation
      JOINT RightShoulder
      {
       OFFSET -13.519700 0.000000 0.000000
       CHANNELS 3 Yrotation Xrotation Zrotation
       JOINT RightElbow
       {
        OFFSET 0.000000 -29.696600 0.000000
        CHANNELS 3 Yrotation Xrotation Zrotation
        JOINT RightWrist
        {
         OFFSET 0.000000 -24.004700 0.000000
         CHANNELS 3 Yrotation Xrotation Zrotation
         End Site
         {
          OFFSET 0.000000 -17.728500 0.000000
         }
        }
       }
      }
     }
     JOINT LeftCollar
     {
      OFFSET 2.921100 9.558500 0.000000
      CHANNELS 3 Yrotation Xrotation Zrotation
      JOINT LeftShoulder
      {
       OFFSET 13.519700 0.000000 0.000000
       CHANNELS 3 Yrotation Xrotation Zrotation
       JOINT LeftElbow
       {
        OFFSET 0.000000 -29.696600 0.000000
        CHANNELS 3 Yrotation Xrotation Zrotation
        JOINT LeftWrist
        {
         OFFSET 0.000000 -24.004700 0.000000
         CHANNELS 3 Yrotation Xrotation Zrotation
         End Site
         {
          OFFSET 0.000000 -17.728500 0.000000
         }
        }
       }
      }
     }
    }
   }
  }
 }
 JOINT RightHip
 {
  OFFSET -7.771700 -0.012900 -0.001300
  CHANNELS 3 Yrotation Xrotation Zrotation
  JOINT RightKnee
  {
   OFFSET 0.000000 -40.869800 0.001200
   CHANNELS 3 Yrotation Xrotation Zrotation
   JOINT RightAnkle
   {
    OFFSET 0.000000 -39.717900 0.002100
    CHANNELS 3 Yrotation Xrotation Zrotation
    JOINT RightToe
    {
     OFFSET 0.000000 -4.965400 11.033500
     CHANNELS 3 Yrotation Xrotation Zrotation
     End Site
     {
      OFFSET 0.000000 -1.423100 5.872300
     }
    }
   }
  }
 }
 JOINT LeftHip
 {
  OFFSET 7.771700 -0.012900 -0.001300
  CHANNELS 3 Yrotation Xrotation Zrotation
  JOINT LeftKnee
  {
   OFFSET 0.000000 -40.869800 0.001200
   CHANNELS 3 Yrotation Xrotation Zrotation
   JOINT LeftAnkle
   {
    OFFSET 0.000000 -39.717900 0.002100
    CHANNELS 3 Yrotation Xrotation Zrotation
    JOINT LeftToe
    {
     OFFSET 0.000000 -4.965400 11.033500
     CHANNELS 3 Yrotation Xrotation Zrotation
     End Site
     {
      OFFSET 0.000000 -1.423100 5.872300
     }
    }
   }
  }
 }
}
MOTION
Frames: 7
Frame Time: 0.008333
0.000000 85.388000 0.000000 0.000000 -5.767877 0.000000 0.000000 11.653817 0.000000 0.000000 -5.885947 0.000000 0.000000 -0.000000 0.000000 0.000000 -0.000000 0.000000 0.000000 12.528835 0.000000 0.000000 0.711642 0.000000 0.000000 -0.000000 0.000000 0.000000 0.000000 -90.000000 0.000000 -2.309062 0.000000 0.000000 2.309062 0.000000 0.000000 -0.000000 0.000000 0.000000 -0.000000 90.000000 0.000000 -2.309062 0.000000 0.000000 2.309062 0.000000 0.000000 8.520406 0.000000 0.000000 1.905762 0.000000 -0.000000 -4.658285 0.000000 0.000000 -0.000000 0.000000 0.000000 8.520406 0.000000 0.000000 1.905762 0.000000 -0.000000 -4.658285 0.000000 0.000000 -0.000000 0.000000
-50.707728 48.706861 18.156817 173.642753 -27.110268 -0.225823 0.071445 11.414614 1.693076 -0.072240 6.532990 1.454341 -0.061226 8.174080 1.814393 -0.054071 6.545727 1.438536 -0.350963 18.501149 -2.325486 0.126624 -1.404153 -4.184095 4.491436 5.384274 -4.778387 -1.833138 -19.887662 -8.652321 34.290007 -55.749535 -22.532087 10.737018 8.132707 -33.318256 -2.058052 2.585467 -2.985554 4.791791 -25.028739 -1.190653 -62.914727 -37.952289 36.184911 -6.710293 14.825151 35.569763 24.018560 -54.719949 -31.854173 -108.601098 70.304428 -98.405228 2.640649 -4.302426 3.007042 0.251367 -1.064167 0.118595 -0.759354 -57.183694 12.007306 100.577860 83.796112 98.223050 -7.218566 -9.482636 0.451253 0.318117 0.802219 0.143289
-50.707940 48.710598 18.154065 173.651719 -27.120779 -0.225609 0.059587 11.419510 1.691545 -0.076897 6.530414 1.457889 -0.061962 8.178085 1.811811 -0.064513 6.545091 1.442351 -0.346239 18.488782 -2.336164 0.115074 -1.486027 -4.201870 4.508164 5.441635 -4.778539 -1.837277 -19.934613 -8.663322 34.298444 -55.765905 -22.540176 10.729615 8.109021 -33.342770 -2.042487 2.600537 -2.994235 4.809247 -25.015763 -1.190027 -62.921079 -38.001041 36.197991 -6.648042 14.783715 35.622080 23.995382 -54.707936 -31.841415 -108.602702 70.311510 -98.413042 2.640537 -4.309868 3.007818 0.249505 -1.066740 0.117716 -0.759318 -57.170211 11.997408 100.558149 83.806755 98.203881 -7.209785 -9.473867 0.450308 0.322221 0.792248 0.143860
-50.707278 48.715220 18.150830 173.655759 -27.130786 -0.227907 0.049040 11.416767 1.700018 -0.073806 6.540394 1.451046 -0.066426 8.175653 1.815480 -0.073846 6.540404 1.451093 -0.344673 18.478430 -2.352371 0.100415 -1.587642 -4.224112 4.530323 5.473977 -4.789084 -1.852446 -19.936321 -8.670801 34.312282 -55.793558 -22.554629 10.727417 8.100246 -33.356969 -2.034038 2.603948 -3.006358 4.862346 -24.943323 -1.181582 -62.970042 -38.087948 36.241318 -6.617098 14.759045 35.654148 23.970274 -54.698272 -31.817674 -108.601390 70.322757 -98.416528 2.624843 -4.313485 3.005599 0.257135 -1.072032 0.118932 -0.762666 -57.156620 11.997163 100.561047 83.822388 98.206109 -7.193295 -9.465873 0.450463 0.319099 0.781666 0.143345
-50.706261 48.720289 18.147780 173.652163 -27.134501 -0.228870 0.042235 11.384149 1.719720 -0.076999 6.559122 1.442821 -0.071927 8.173354 1.817833 -0.092154 6.505415 1.472381 -0.345422 18.475927 -2.389692 0.094502 -1.668603 -4.261650 4.557677 5.536631 -4.824309 -1.852068 -19.919533 -8.658295 34.335794 -55.813024 -22.581044 10.721701 8.098960 -33.383019 -2.019731 2.628406 -3.037354 4.889193 -24.894017 -1.188587 -62.940169 -38.135224 36.228621 -6.586577 14.722801 35.704580 23.954879 -54.690692 -31.798688 -108.589405 70.341831 -98.402190 2.606059 -4.315988 3.000615 0.271921 -1.077086 0.119768 -0.762260 -57.149086 11.997877 100.586403 83.845945 98.230848 -7.155810 -9.457946 0.448767 0.296052 0.770634 0.142499
-50.706431 48.726769 18.142702 173.652502 -27.144829 -0.223271 0.040186 11.368594 1.724243 -0.085782 6.562973 1.442912 -0.078420 8.169617 1.819485 -0.096424 6.485372 1.481457 -0.366736 18.367395 -2.413291 0.105692 -1.664393 -4.313077 4.588330 5.579555 -4.841411 -1.846991 -19.909275 -8.645398 34.334176 -55.811340 -22.605294 10.713744 8.103418 -33.406280 -2.028106 2.615918 -3.043032 4.925993 -24.815481 -1.202979 -62.834147 -38.210202 36.138257 -6.596817 14.673236 35.796127 23.950199 -54.672638 -31.793889 -108.595903 70.370204 -98.401731 2.568331 -4.312055 2.991907 0.290607 -1.087304 0.125080 -0.752088 -57.134332 11.984259 100.637684 83.882066 98.282727 -7.131044 -9.441805 0.455032 0.297017 0.751276 0.136382
-50.704932 48.733958 18.136982 173.664332 -27.154269 -0.232887 0.030783 11.343439 1.738224 -0.098766 6.518948 1.462855 -0.097495 8.148869 1.829769 -0.098726 6.518931 1.462830 -0.366294 18.389061 -2.443617 0.096645 -1.772539 -4.368036 4.636623 5.621213 -4.864813 -1.835409 -19.888509 -8.627352 34.302072 -55.778354 -22.605388 10.700887 8.102852 -33.444020 -2.043267 2.589667 -3.043074 4.970852 -24.677948 -1.223170 -62.738880 -38.280030 36.064250 -6.576101 14.600980 35.898069 23.936651 -54.653692 -31.779358 -108.646408 70.422556 -98.433683 2.496389 -4.323099 2.977333 0.313178 -1.091346 0.137321 -0.768990 -57.118507 11.986742 100.653825 83.909306 98.298331 -7.094629 -9.434492 0.462398 0.279360 0.742181 0.126531
